<svg version="1.2" xmlns="http://www.w3.org/2000/svg" viewBox="0 0 40 41" width="40" height="41">
	<defs>
		<clipPath clipPathUnits="userSpaceOnUse" id="cp1">
			<path d="m0 0h40v41h-40z"/>
		</clipPath>
	</defs>
	<style>
		.s0 { fill: #c7231a } 
	</style>
	<g id="Clip-Path" clip-path="url(#cp1)">
		<g>
			<path fill-rule="evenodd" class="s0" d="m15.47 0.7q0.87 0.18 1.68 0.54 0.81 0.36 1.53 0.88 0.72 0.51 1.32 1.17c0.78-0.85 1.71-1.53 2.76-2.01 1.05-0.48 2.18-0.74 3.33-0.76 1.15-0.03 2.29 0.18 3.36 0.61 1.07 0.42 2.04 1.06 2.85 1.88l7.7 7.7v3.52q0 0.89-0.18 1.76-0.18 0.86-0.54 1.68-0.36 0.81-0.88 1.53-0.52 0.72-1.17 1.32c1.7 1.55 2.77 3.79 2.77 6.28v3.53l-7.7 7.69c-0.81 0.82-1.78 1.46-2.85 1.88-1.07 0.43-2.21 0.64-3.36 0.61-1.15-0.02-2.28-0.28-3.33-0.76-1.05-0.47-1.98-1.16-2.76-2.01-0.78 0.85-1.71 1.54-2.76 2.01-1.05 0.48-2.18 0.74-3.33 0.76-1.15 0.03-2.29-0.18-3.36-0.6-1.07-0.43-2.04-1.07-2.85-1.89l-7.7-7.69v-3.53q0-0.89 0.18-1.75 0.18-0.87 0.54-1.68 0.36-0.82 0.88-1.54 0.52-0.72 1.17-1.31c-1.7-1.56-2.77-3.8-2.77-6.29v-3.52l7.7-7.7c1.59-1.6 3.76-2.49 6.01-2.49q0.89 0 1.76 0.18zm10.29 19.82q-0.04-0.04-0.07-0.07-0.04-0.03-0.07-0.07-0.04-0.03-0.07-0.07-0.04-0.03-0.07-0.06l-5.48-5.48-5.48 5.48q-0.03 0.03-0.07 0.07-0.03 0.03-0.07 0.06-0.03 0.04-0.07 0.07-0.03 0.03-0.07 0.07 0.14 0.13 0.28 0.27l5.48 5.47 5.48-5.47q0.13-0.14 0.28-0.27zm-3.54 9.81v1.68c0 0.8 0.24 1.59 0.69 2.26 0.44 0.66 1.08 1.18 1.82 1.49 0.74 0.31 1.56 0.39 2.35 0.23 0.79-0.15 1.51-0.54 2.08-1.11l6.4-6.39v-1.69c0-0.8-0.24-1.59-0.69-2.26-0.44-0.66-1.08-1.19-1.82-1.49-0.74-0.31-1.56-0.39-2.35-0.23-0.79 0.15-1.51 0.54-2.08 1.11zm-4.45 0l-6.39-6.4c-0.57-0.57-1.29-0.96-2.08-1.11-0.79-0.16-1.61-0.08-2.35 0.23-0.74 0.31-1.38 0.83-1.82 1.5-0.45 0.66-0.69 1.45-0.69 2.25v1.69l6.4 6.39c0.57 0.57 1.29 0.96 2.08 1.12 0.79 0.15 1.6 0.07 2.35-0.23 0.74-0.31 1.37-0.83 1.82-1.5 0.45-0.67 0.69-1.46 0.68-2.26zm-0.68-23.56c-0.45-0.67-1.08-1.19-1.82-1.5-0.75-0.3-1.56-0.38-2.35-0.23-0.79 0.16-1.51 0.55-2.08 1.12l-6.4 6.39v1.69c0 0.8 0.24 1.59 0.69 2.25 0.44 0.67 1.08 1.19 1.82 1.5 0.74 0.31 1.56 0.39 2.35 0.23 0.79-0.16 1.51-0.54 2.08-1.11l6.39-6.4v-1.68c0.01-0.8-0.23-1.59-0.68-2.26zm13.61 11.45c0.78 0.16 1.6 0.08 2.34-0.23 0.75-0.31 1.38-0.83 1.83-1.5 0.44-0.66 0.68-1.45 0.68-2.25v-1.69l-6.39-6.39c-0.57-0.57-1.3-0.96-2.09-1.12-0.78-0.15-1.6-0.07-2.34 0.24-0.75 0.3-1.38 0.82-1.83 1.49-0.44 0.67-0.68 1.46-0.68 2.26v1.68l6.4 6.4c0.56 0.57 1.29 0.95 2.08 1.11z"/>
		</g>
	</g>
</svg>